<?xml version="1.0" encoding="UTF-8" standalone="no"?>
<!-- Created with Inkscape (http://www.inkscape.org/) -->

<svg
   width="512"
   height="512"
   viewBox="0 0 512 512"
   version="1.1"
   id="svg1"
   xml:space="preserve"
   inkscape:version="1.4.2 (f4327f4, 2025-05-13)"
   sodipodi:docname="Ying-Yang_Icon.svg"
   xmlns:inkscape="http://www.inkscape.org/namespaces/inkscape"
   xmlns:sodipodi="http://sodipodi.sourceforge.net/DTD/sodipodi-0.dtd"
   xmlns="http://www.w3.org/2000/svg"
   xmlns:svg="http://www.w3.org/2000/svg"><sodipodi:namedview
     id="namedview1"
     pagecolor="#5c9edc"
     bordercolor="#eeeeee"
     borderopacity="1"
     inkscape:showpageshadow="false"
     inkscape:pageopacity="0"
     inkscape:pagecheckerboard="true"
     inkscape:deskcolor="#002b4e"
     inkscape:document-units="px"
     labelstyle="below"
     inkscape:clip-to-page="true"
     inkscape:antialias-rendering="false"
     inkscape:lockguides="true"
     showgrid="true"
     inkscape:zoom="1.5292969"
     inkscape:cx="238.99872"
     inkscape:cy="246.84547"
     inkscape:window-width="1920"
     inkscape:window-height="1001"
     inkscape:window-x="-9"
     inkscape:window-y="-9"
     inkscape:window-maximized="1"
     inkscape:current-layer="layer1"><sodipodi:guide
       position="0,512"
       orientation="0,512"
       inkscape:locked="true"
       id="guide4" /><sodipodi:guide
       position="512,512"
       orientation="512,0"
       inkscape:locked="true"
       id="guide5" /><sodipodi:guide
       position="512,0"
       orientation="0,-512"
       inkscape:locked="true"
       id="guide6" /><sodipodi:guide
       position="0,0"
       orientation="-512,0"
       inkscape:locked="true"
       id="guide7" /><inkscape:grid
       id="grid7"
       units="px"
       originx="0"
       originy="0"
       spacingx="1"
       spacingy="1"
       empcolor="#0099e5"
       empopacity="0.30196078"
       color="#0099e5"
       opacity="0.14902"
       empspacing="1"
       enabled="true"
       visible="false"
       dotted="true"
       snapvisiblegridlinesonly="true" /></sodipodi:namedview><defs
     id="defs1"><inkscape:path-effect
       effect="fillet_chamfer"
       id="path-effect28"
       is_visible="true"
       lpeversion="1"
       nodesatellites_param="F,0,0,1,0,0,0,1 @ F,0,0,1,0,0,0,1 @ F,0,0,1,0,0,0,1 @ F,0,0,1,0,0,0,1 @ F,0,0,1,0,0,0,1 @ F,0,0,1,0,0,0,1 @ F,0,0,1,0,0,0,1 @ F,0,0,1,0,0,0,1 @ F,0,0,1,0,0,0,1 @ F,0,0,1,0,0,0,1 @ F,0,0,1,0,0,0,1 @ F,0,0,1,0,0,0,1 @ F,0,0,1,0,0,0,1 | F,0,0,1,0,0,0,1 @ F,0,0,1,0,0,0,1 @ F,0,0,1,0,0,0,1 @ F,0,0,1,0,0,0,1 @ F,0,0,1,0,0,0,1 @ F,0,0,1,0,0,0,1 @ F,0,0,1,0,0,0,1 @ F,0,0,1,0,0,0,1 @ F,0,0,1,0,0,0,1 @ F,0,0,1,0,0,0,1 @ F,0,0,1,0,0,0,1 @ F,0,0,1,0,0,0,1 @ F,0,0,1,0,0,0,1"
       radius="0"
       unit="px"
       method="auto"
       mode="F"
       chamfer_steps="1"
       flexible="false"
       use_knot_distance="true"
       apply_no_radius="true"
       apply_with_radius="true"
       only_selected="false"
       hide_knots="false" /><inkscape:path-effect
       effect="powerstroke"
       message=""
       id="path-effect26"
       is_visible="true"
       lpeversion="1.3"
       scale_width="1"
       interpolator_type="CubicBezierJohan"
       interpolator_beta="0.2"
       start_linecap_type="zerowidth"
       end_linecap_type="zerowidth"
       offset_points="0,0"
       linejoin_type="extrp_arc"
       miter_limit="4"
       not_jump="false"
       sort_points="true" /><inkscape:path-effect
       effect="circle_with_radius"
       id="path-effect24"
       is_visible="true"
       lpeversion="1" /><inkscape:path-effect
       effect="powerstroke"
       message=""
       id="path-effect22"
       is_visible="true"
       lpeversion="1.3"
       scale_width="1"
       interpolator_type="CubicBezierJohan"
       interpolator_beta="0.2"
       start_linecap_type="zerowidth"
       end_linecap_type="zerowidth"
       offset_points="0,0"
       linejoin_type="extrp_arc"
       miter_limit="4"
       not_jump="false"
       sort_points="true" /><inkscape:path-effect
       effect="powerstroke"
       message=""
       id="path-effect20"
       is_visible="true"
       lpeversion="1.3"
       scale_width="1"
       interpolator_type="CubicBezierJohan"
       interpolator_beta="0.2"
       start_linecap_type="zerowidth"
       end_linecap_type="zerowidth"
       offset_points="0,0"
       linejoin_type="extrp_arc"
       miter_limit="4"
       not_jump="false"
       sort_points="true" /><inkscape:path-effect
       effect="circle_with_radius"
       id="path-effect19"
       is_visible="true"
       lpeversion="1" /><inkscape:path-effect
       effect="circle_with_radius"
       id="path-effect18"
       is_visible="true"
       lpeversion="1" /><inkscape:path-effect
       effect="circle_with_radius"
       id="path-effect15"
       is_visible="true"
       lpeversion="1" /><inkscape:path-effect
       effect="circle_with_radius"
       id="path-effect14"
       is_visible="true"
       lpeversion="1" /><inkscape:path-effect
       effect="circle_with_radius"
       id="path-effect13"
       is_visible="true"
       lpeversion="1" /><inkscape:path-effect
       effect="powerstroke"
       message=""
       id="path-effect11"
       is_visible="true"
       lpeversion="1.3"
       scale_width="1"
       interpolator_type="CubicBezierJohan"
       interpolator_beta="0.2"
       start_linecap_type="zerowidth"
       end_linecap_type="zerowidth"
       offset_points="0,0"
       linejoin_type="extrp_arc"
       miter_limit="4"
       not_jump="false"
       sort_points="true" /><inkscape:path-effect
       effect="fillet_chamfer"
       id="path-effect10"
       is_visible="true"
       lpeversion="1"
       nodesatellites_param="F,0,0,1,0,124,0,1 @ F,0,0,1,0,132,0,1 @ F,0,0,1,0,132,0,1 @ F,0,0,1,0,116,0,1"
       radius="0"
       unit="px"
       method="auto"
       mode="F"
       chamfer_steps="1"
       flexible="false"
       use_knot_distance="true"
       apply_no_radius="true"
       apply_with_radius="true"
       only_selected="false"
       hide_knots="false" /><inkscape:path-effect
       effect="fillet_chamfer"
       id="path-effect9"
       is_visible="true"
       lpeversion="1"
       nodesatellites_param="F,0,0,1,0,0,0,1 @ F,0,0,1,0,0,0,1 @ F,0,0,1,0,0,0,1 @ F,0,0,1,0,0,0,1"
       radius="0"
       unit="px"
       method="auto"
       mode="F"
       chamfer_steps="1"
       flexible="false"
       use_knot_distance="true"
       apply_no_radius="true"
       apply_with_radius="true"
       only_selected="false"
       hide_knots="false" /><inkscape:path-effect
       effect="powerstroke"
       message=""
       id="path-effect7"
       is_visible="true"
       lpeversion="1.3"
       scale_width="1"
       interpolator_type="CubicBezierJohan"
       interpolator_beta="0.2"
       start_linecap_type="zerowidth"
       end_linecap_type="zerowidth"
       offset_points="0,0"
       linejoin_type="extrp_arc"
       miter_limit="4"
       not_jump="false"
       sort_points="true" /><inkscape:path-effect
       effect="powerstroke"
       message=""
       id="path-effect3"
       is_visible="true"
       lpeversion="1.3"
       scale_width="1"
       interpolator_type="CubicBezierJohan"
       interpolator_beta="0.2"
       start_linecap_type="zerowidth"
       end_linecap_type="zerowidth"
       offset_points="0,0"
       linejoin_type="extrp_arc"
       miter_limit="4"
       not_jump="false"
       sort_points="true" /><inkscape:path-effect
       effect="fillet_chamfer"
       id="path-effect2"
       is_visible="true"
       lpeversion="1"
       nodesatellites_param="F,0,0,1,0,0,0,1 @ F,0,0,1,0,0,0,1 @ F,0,0,1,0,0,0,1 @ F,0,0,1,0,0,0,1"
       radius="0"
       unit="px"
       method="auto"
       mode="F"
       chamfer_steps="1"
       flexible="false"
       use_knot_distance="true"
       apply_no_radius="true"
       apply_with_radius="true"
       only_selected="false"
       hide_knots="false" /><inkscape:path-effect
       effect="fill_between_many"
       method="bsplinespiro"
       autoreverse="false"
       close="false"
       join="false"
       linkedpaths="#path2,0,1"
       id="path-effect4" /><inkscape:path-effect
       effect="fill_between_many"
       method="bsplinespiro"
       autoreverse="false"
       close="false"
       join="false"
       linkedpaths="#path7,0,1"
       id="path-effect8" /><inkscape:path-effect
       effect="fill_between_many"
       method="bsplinespiro"
       autoreverse="false"
       close="false"
       join="false"
       linkedpaths="#path10,0,1"
       id="path-effect12" /><inkscape:path-effect
       effect="circle_with_radius"
       id="path-effect13-8"
       is_visible="true"
       lpeversion="1" /><inkscape:path-effect
       effect="circle_with_radius"
       id="path-effect18-7"
       is_visible="true"
       lpeversion="1" /><inkscape:path-effect
       effect="fill_between_many"
       method="bsplinespiro"
       autoreverse="false"
       close="false"
       join="false"
       linkedpaths="#path20,0,1"
       id="path-effect21" /><inkscape:path-effect
       effect="fill_between_many"
       method="bsplinespiro"
       autoreverse="false"
       close="false"
       join="false"
       linkedpaths="#path20,0,1"
       id="path-effect21-6"
       is_visible="true"
       lpeversion="0" /><inkscape:path-effect
       effect="powerstroke"
       message=""
       id="path-effect20-2"
       is_visible="true"
       lpeversion="1.3"
       scale_width="1"
       interpolator_type="CubicBezierJohan"
       interpolator_beta="0.2"
       start_linecap_type="zerowidth"
       end_linecap_type="zerowidth"
       offset_points="0,0"
       linejoin_type="extrp_arc"
       miter_limit="4"
       not_jump="false"
       sort_points="true" /><inkscape:path-effect
       effect="fill_between_many"
       method="bsplinespiro"
       autoreverse="false"
       close="false"
       join="false"
       linkedpaths="#path22,0,1"
       id="path-effect23" /><filter
       inkscape:label="Blur Double"
       inkscape:menu="Blurs"
       inkscape:menu-tooltip="Overlays two copies with different blur amounts and modifiable blend and composite"
       style="color-interpolation-filters:sRGB;"
       id="filter26"
       x="-0.024241935"
       y="-0.024241935"
       width="1.0484839"
       height="1.0484839"><feGaussianBlur
         stdDeviation="5"
         result="fbSourceGraphic"
         id="feGaussianBlur25" /><feGaussianBlur
         stdDeviation="0.01"
         in="SourceGraphic"
         result="result1"
         id="feGaussianBlur26" /><feComposite
         in2="result1"
         operator="arithmetic"
         in="fbSourceGraphic"
         k2="0.5"
         k3="0.5"
         result="result2"
         id="feComposite26" /><feBlend
         in2="fbSourceGraphic"
         mode="normal"
         result="result3"
         id="feBlend26" /></filter><inkscape:path-effect
       effect="fill_between_many"
       method="bsplinespiro"
       autoreverse="false"
       close="false"
       join="false"
       linkedpaths="#path26,0,1"
       id="path-effect27" /></defs><g
     inkscape:label="Слой 1"
     inkscape:groupmode="layer"
     id="layer1"><rect
       style="fill:#cdcdcd;fill-opacity:1;fill-rule:evenodd;stroke-width:1.12326"
       id="rect1"
       width="513.80469"
       height="512"
       x="-1.80469"
       y="0.02148" /><path
       inkscape:original-d="M 0,0"
       inkscape:path-effect="#path-effect4"
       d="m 115.08557,-126.85568 512,512 h -512 z"
       id="path4"
       style="opacity:0.1;fill:#000000;fill-opacity:1"
       transform="translate(-115.08557,126.85568)" /><path
       style="fill:#000000;fill-opacity:1;fill-rule:nonzero;stroke:none"
       d="M 0,0 C 110.36231,110.36231 300.02045,300.02045 512,512 345.90152,512 166.09848,512 0,512 0,300.02045 0,110.36231 0,0 Z m 0,0 c 0,110.36231 0,300.02045 0,512 166.09848,0 345.90152,0 512,0 C 300.02045,300.02045 110.36231,110.36231 0,0 Z"
       id="path2"
       inkscape:path-effect="#path-effect3"
       inkscape:original-d="M 0,0 512,512 H 0 Z"
       inkscape:linked-fill="path4" /><path
       style="opacity:0.17;fill:#000000;fill-opacity:1;fill-rule:nonzero;stroke:none;filter:url(#filter26)"
       d="m 760,248 a 248,248 0 0 1 -496,0 248,248 0 0 1 496,0 z"
       id="path24"
       inkscape:path-effect="#path-effect24"
       inkscape:original-d="M 512,248 V 0"
       transform="matrix(0.63177294,0,0,0.61264605,-67.467745,126.12756)" /><path
       style="opacity:1;fill:#00d82a;fill-opacity:1;fill-rule:nonzero;stroke:none"
       d="M 272,0 C 209.97415,58.377271 112.58795,150.03487 5.9277113e-8,256 82.406242,335.90908 173.20312,423.95454 264,512 349.29404,423.95454 434.58808,335.90908 512,256 412.65769,150.03487 326.72869,58.377271 272,0 Z m 0,0 C 326.72869,58.377271 412.65769,150.03487 512,256 434.58808,335.90908 349.29404,423.95454 264,512 173.20312,423.95454 82.406242,335.90908 -5.7533668e-8,256 112.58795,150.03487 209.97415,58.377271 272,0 Z"
       id="path10"
       inkscape:path-effect="#path-effect11"
       inkscape:original-d="M 272,0 0,256 264,512 512,256 Z"
       inkscape:linked-fill="path12" /><rect
       style="opacity:0.239411;fill:#ffffff;fill-opacity:1;fill-rule:evenodd;stroke:none;stroke-width:1.64791;stroke-opacity:1"
       id="rect19"
       width="256"
       height="511.97852"
       x="256"
       y="0.021484375"
       ry="0" /><g
       id="g28"
       inkscape:label="border"
       transform="matrix(1.004357,0,0,1.00311,-1.4152877,11.864152)"
       style="fill:#929292;fill-opacity:1;stroke:#000000;stroke-opacity:0"><path
         d="m 101.88275,269.29688 c 0,0 19.53763,-156 156,-156 136,0 156,156 156,156 0,0 -20,-80 -68,-120 -45.06898,-37.55748 -131.66624,-38.42259 -176,0 -60,52 -68,120 -68,120 z"
         id="path27"
         style="fill:#929292;fill-opacity:1;stroke:#000000;stroke-opacity:0"
         transform="translate(-1.5841435,-7.4900892)"
         inkscape:label="border"
         inkscape:original-d="M 0,0"
         inkscape:path-effect="#path-effect27" /><path
         style="display:inline;opacity:0.17;fill:#929292;fill-opacity:1;fill-rule:nonzero;stroke:#000000;stroke-opacity:0"
         d="m 100,276 c 0,0 0.69632,-7.81376 5.18498,-24.375 3.54047,-13.06282 10.10481,-33.11947 21.6416,-53.62495 10.31111,-18.32692 25.38341,-38.42729 47.22835,-53.62504 10.29925,-7.16531 22.23581,-13.33334 36.06232,-17.67189 C 223.47986,122.51014 238.69003,120 256,120 c 16.78222,0 31.99028,2.37547 45.75,6.70313 13.41433,4.21902 25.36693,10.2667 35.99993,17.67182 C 358.42057,158.77058 373.74357,178.04543 385,198 c 10.88801,19.30147 17.6691,38.70422 21.75,53.625 3.96089,14.48199 5.25,24.37498 5.25,24.375 0,0 -4.90377,-19.78129 -16,-45 -5.51197,-12.52721 -12.51253,-26.26906 -21.125,-39.375 C 366.1966,178.41874 355.94413,165.95344 344,156 c -11.36348,-9.46956 -25.27814,-16.53203 -40.27904,-21.24774 -15.35385,-4.82666 -31.81494,-7.19148 -47.99667,-7.24479 -16.73144,-0.0551 -33.08379,2.35496 -47.85881,7.00148 C 192.40251,139.37182 178.81137,146.63015 168,156 152.55417,169.38638 140.87961,183.55181 132.06248,196.68753 122.51519,210.91106 115.96424,224.45688 111.5,235.49999 100.04312,263.84069 100,276 100,276 Z m 0,0 c 0,0 0.0431,-12.15931 11.5,-40.50001 4.46424,-11.04311 11.01519,-24.58893 20.56248,-38.81246 C 140.87961,183.55181 152.55417,169.38638 168,156 c 10.81137,-9.36985 24.40251,-16.62818 39.86543,-21.49103 14.77507,-4.64654 31.12742,-7.05662 47.85886,-7.0015 16.18173,0.0533 32.64282,2.41813 47.99667,7.24479 15.0009,4.71571 28.91556,11.77818 40.279,21.24771 11.94417,9.95347 22.19664,22.41877 30.87504,35.62503 8.61247,13.10594 15.61303,26.84779 21.125,39.375 11.09623,25.21871 16,45 16,45 0,-2e-5 -1.28911,-9.89301 -5.25,-24.375 C 402.6691,236.70422 395.88801,217.30147 385,198 373.74357,178.04543 358.42057,158.77058 337.75,144.375 327.11693,136.96983 315.16433,130.92215 301.75,126.70313 287.99028,122.37547 272.78222,120 256,120 c -17.30997,0 -32.52014,2.51014 -45.88275,6.70312 -13.82651,4.33855 -25.76307,10.50658 -36.06232,17.67189 C 152.20999,159.57276 137.13769,179.67313 126.82661,198 115.28979,218.50553 108.72545,238.56218 105.18498,251.625 100.69632,268.18624 100,276 100,276 Z"
         id="path26"
         inkscape:linked-fill="path27"
         sodipodi:nodetypes="cscssc"
         inkscape:label="border"
         transform="translate(0.2986065,-14.193209)"
         inkscape:original-d="m 100,276 c 0,0 19.53763,-156 156,-156 136,0 156,156 156,156 0,0 -20,-80 -68,-120 -45.06898,-37.55748 -131.66624,-38.42259 -176,0 -60,52 -68,120 -68,120 z"
         inkscape:path-effect="#path-effect26" /></g><g
       id="g17"
       transform="translate(0,15.957478)"
       inkscape:label="ying-yang"
       sodipodi:insensitive="true"><g
         id="g19"
         sodipodi:insensitive="true"><path
           d="m 258.38477,104.03516 a 76.709088,76.021721 0 0 1 74.32421,75.98632 76.709088,76.021721 0 0 1 -74.90429,76 76.709088,76.021721 0 0 1 -3.60938,0 A 76.000001,75.999998 0 0 0 180,332 a 76.000001,75.999998 0 0 0 79.80078,75.8125 76.000001,75.999998 0 0 1 -1.51758,0.15234 156.67946,152 0 0 0 1.97266,-0.15234 76.000001,75.999998 0 0 0 2.12109,-0.16406 A 156.67946,152 0 0 0 412.67969,256 156.67946,152 0 0 0 258.38477,104.03516 Z"
           style="fill:#ffffff;stroke:none"
           id="path17"
           inkscape:label="whiteHalf" /><path
           d="M 253.61523,104.03516 A 156.67946,152 0 0 0 99.320312,256 156.67946,152 0 0 0 253.7168,407.96484 76.000001,75.999998 0 0 1 180,332 a 76.000001,75.999998 0 0 1 74.19531,-75.97852 76.709088,76.021721 0 0 1 -2.95703,-0.27539 76.709088,76.021721 0 0 0 81.4707,-75.72461 76.709088,76.021721 0 0 0 -79.09375,-75.98632 z"
           style="fill:#000000;fill-opacity:1;stroke:none"
           id="path16"
           inkscape:label="blackHalf" /><path
           style="fill:#000000;fill-opacity:1;fill-rule:nonzero;stroke:none"
           d="m 84.830631,255.98163 a 24.01837,24.01837 0 0 1 -48.03674,0 24.01837,24.01837 0 0 1 48.03674,0 z"
           id="path18"
           inkscape:path-effect="#path-effect18"
           inkscape:original-d="M 60.812261,255.98163 V 280"
           transform="matrix(0.66692157,0,0,0.66653919,215.44299,157.37821)"
           inkscape:label="blackDot" /><path
           style="fill:#ffffff;fill-opacity:1;fill-rule:nonzero;stroke:none"
           d="m 152,56 a 40,40 0 0 1 -80,0 40,40 0 0 1 80,0 z"
           id="path19"
           inkscape:path-effect="#path-effect19"
           inkscape:original-d="M 112,56 V 96"
           transform="matrix(0.4,0,0,0.4,211.2,161.6)"
           inkscape:label="whiteDot" /></g></g><path
       inkscape:original-d="M 0,0"
       inkscape:path-effect="#path-effect21-6"
       d="M 309.99995,9.3463315 53.999954,265.34633 H 309.99995 Z"
       id="path21-2"
       style="opacity:0.1;fill:#000000;fill-opacity:1"
       transform="matrix(0.62326397,0,0,0.62499998,318.34376,346.15853)" /><path
       style="opacity:1;fill:#ffffff;fill-opacity:1;fill-rule:nonzero;stroke:none;stroke-opacity:1"
       d="M 512,378.22175 C 480.9606,407.05784 427.61925,456.61279 368,512 c 46.7152,0 97.2848,0 144,0 0,-55.38721 0,-104.94216 0,-133.77825 z m 0,0 c 0,28.83609 0,78.39104 0,133.77825 -46.7152,0 -97.2848,0 -144,0 59.61925,-55.38721 112.9606,-104.94216 144,-133.77825 z"
       id="path20"
       inkscape:path-effect="#path-effect20"
       inkscape:original-d="M 512,378.22175 368,512 h 144 z"
       inkscape:linked-fill="path21"
       transform="matrix(1.1080248,0,0,1.196009,-55.753141,-100.35663)" /><path
       inkscape:original-d="M 0,0"
       inkscape:path-effect="#path-effect23"
       d="M 512,352 352,512 h 160 z"
       id="path23"
       style="fill:#000000;opacity:0.1"
       transform="rotate(-178.69245,253.94602,254.92122)" /><path
       style="opacity:0.1;fill:#000000;fill-opacity:1;fill-rule:nonzero;stroke:none;stroke-opacity:1"
       d="m 512,352 c -34.48822,34.48822 -93.75639,93.75639 -160,160 51.90578,0 108.09422,0 160,0 0,-66.24361 0,-125.51178 0,-160 z m 0,0 c 0,34.48822 0,93.75639 0,160 -51.90578,0 -108.09422,0 -160,0 66.24361,-66.24361 125.51178,-125.51178 160,-160 z"
       id="path22"
       inkscape:path-effect="#path-effect22"
       inkscape:original-d="M 512,352 352,512 h 160 z"
       inkscape:linked-fill="path23"
       transform="rotate(-178.69245,253.94602,254.92122)" /></g><style
     type="text/css"
     id="style1">
	.st0{fill:#FFFFFF;}
	.st1{fill:#FFFFFF;stroke:#000000;stroke-width:4;stroke-miterlimit:10;}
	.st2{stroke:#000000;stroke-width:4;stroke-miterlimit:10;}
</style></svg>
